<svg xmlns="http://www.w3.org/2000/svg" viewBox="0 0 64 64" role="img" aria-label="StackDesk">
  <rect width="64" height="64" rx="10" fill="#08090d"/>
  <rect x="5.5" y="5.5" width="53" height="53" rx="8" fill="#0e1117" stroke="#2a3142"/>
  <path d="M12 18h8l4 4" fill="none" stroke="#2a3142" stroke-width="2" stroke-linecap="round" stroke-linejoin="round"/>
  <path d="M52 44h-8l-4-4" fill="none" stroke="#2a3142" stroke-width="2" stroke-linecap="round" stroke-linejoin="round"/>
  <path d="M16 44 32 53 48 44 32 35Z" fill="#141821" stroke="#5c6675" stroke-width="2" stroke-linejoin="round"/>
  <path d="M16 44v5l16 9v-5Z" fill="#0e1117" stroke="#5c6675" stroke-width="2" stroke-linejoin="round"/>
  <path d="M48 44v5l-16 9v-5Z" fill="#141821" stroke="#5c6675" stroke-width="2" stroke-linejoin="round"/>
  <path d="M21 34 32 40 43 34 32 28Z" fill="#1c2230" stroke="#c5e93f" stroke-width="2" stroke-linejoin="round"/>
  <path d="M21 27 32 33 43 27 32 21Z" fill="#1c2230" stroke="#c5e93f" stroke-width="2" stroke-linejoin="round"/>
  <path d="M21 20 32 26 43 20 32 14Z" fill="#c5e93f" stroke="#d9ff42" stroke-width="2" stroke-linejoin="round"/>
  <path d="M21 20v7l11 6v-7Z" fill="#c5e93f" stroke="#08090d" stroke-width="2" stroke-linejoin="round"/>
  <path d="M43 20v7l-11 6v-7Z" fill="#9bbd2f" stroke="#08090d" stroke-width="2" stroke-linejoin="round"/>
  <circle cx="15" cy="18" r="2.5" fill="#c5e93f"/>
  <circle cx="49" cy="44" r="2.5" fill="#38d399"/>
</svg>
